<svg width="277" height="24" viewBox="0 0 277 24" fill="none" xmlns="http://www.w3.org/2000/svg">
<path d="M0.59668 6.65234L0.582031 6.35938V5.45117C0.582031 4.19141 0.606445 2.74609 0.655273 1.11523L0.625977 1.08594L1.41699 1.04199C3.96582 0.905273 5.62109 0.836914 6.38281 0.836914H13.209C15.543 0.836914 17.4814 1.32031 19.0244 2.28711C19.5713 2.75586 20.0156 3.38574 20.3574 4.17676C20.6992 4.96777 20.8701 5.86133 20.8701 6.85742C20.8701 8.78125 19.5811 10.417 17.0029 11.7646C18.458 12.165 19.5713 12.8096 20.3428 13.6982C21.124 14.5771 21.5146 15.6562 21.5146 16.9355C21.5146 19.2012 20.499 20.9199 18.4678 22.0918C16.9736 22.9707 15.084 23.4102 12.7988 23.4102L8.43359 23.3516C6.54883 23.3516 4.04883 23.3955 0.933594 23.4834C0.660156 22.9072 0.523438 20.627 0.523438 16.6426C0.523438 12.6582 0.547852 9.32812 0.59668 6.65234ZM9.70801 18.9131C12.2373 18.9131 13.502 18.0293 13.502 16.2617C13.502 15.1387 13.1602 14.3867 12.4766 14.0059C11.8613 13.6738 10.9189 13.4883 9.64941 13.4492H9.22461L8.96094 14.2695C8.89258 15.2754 8.8584 16.2666 8.8584 17.2432C8.8584 18.21 8.96094 18.7666 9.16602 18.9131H9.70801ZM12.8574 9.11328C13.0527 8.74219 13.1504 8.29297 13.1504 7.76562C13.1504 6.74023 12.7842 6.05176 12.0518 5.7002C11.3193 5.34863 10.5527 5.17285 9.75195 5.17285C8.95117 5.17285 8.55078 5.46582 8.55078 6.05176C8.55078 7.09668 8.5752 8.16602 8.62402 9.25977L8.65332 10.0361C8.67285 10.4072 8.8877 10.627 9.29785 10.6953L10.0156 10.6074C11.5 10.4316 12.4473 9.93359 12.8574 9.11328ZM44.6738 11.6475L44.6299 15.7637C44.6299 17.0234 44.4248 18.1367 44.0146 19.1035C43.6143 20.0703 43.082 20.8516 42.418 21.4473C40.6113 23.0879 37.9404 23.9082 34.4053 23.9082C30.8701 23.9082 28.1211 23.0488 26.1582 21.3301C25.4648 20.7344 24.8789 19.9629 24.4004 19.0156C23.9316 18.0586 23.6484 16.9795 23.5508 15.7783C23.5996 11.6963 23.624 7.92188 23.624 4.45508C23.5752 4.45508 23.5508 3.94238 23.5508 2.91699C23.5508 1.8916 23.5947 1.25684 23.6826 1.0127H23.9902C25.4258 0.93457 27.3838 0.895508 29.8643 0.895508C30.04 0.93457 30.3574 0.958984 30.8164 0.96875C31.2852 0.978516 31.6074 0.993164 31.7832 1.0127L32.2373 1.07129C32.3057 3.00488 32.3496 5.66602 32.3691 9.05469L32.2812 14.9434C32.2812 16.8965 32.8477 17.873 33.9805 17.873C34.459 17.873 34.8594 17.6631 35.1816 17.2432C35.5137 16.8232 35.6895 16.3496 35.709 15.8223L35.7676 15.6758L35.8115 10.7393L35.8262 10.2998C35.8262 8.03418 35.7969 5.84668 35.7383 3.7373L35.709 2.66797C35.6895 2.23828 35.6797 1.85254 35.6797 1.51074C35.6797 1.16895 35.7334 0.93457 35.8408 0.807617C39.6104 0.807617 42.4521 0.822266 44.3662 0.851562C44.4346 0.919922 44.5225 0.983398 44.6299 1.04199H44.6152L44.7764 1.14453C44.6982 2.99023 44.6592 5.36328 44.6592 8.26367V10.7832L44.6738 11.6475ZM53.8877 0.96875L58.5898 0.924805C59.5859 0.924805 60.4893 0.944336 61.2998 0.983398C63.4775 1.04199 65.1328 1.55469 66.2656 2.52148C67.4082 3.48828 67.9795 4.85059 67.9795 6.6084C67.9795 7.8291 67.623 8.87402 66.9102 9.74316C66.1973 10.6025 65.1572 11.3594 63.79 12.0137C65.958 12.6973 67.2715 14.3574 67.7305 16.9941C67.8379 17.5703 67.9209 18.2295 67.9795 18.9717C68.0479 19.7139 68.1016 20.2119 68.1406 20.4658L68.2871 21.2129C68.4434 22.0918 68.5801 22.7266 68.6973 23.1172L68.6387 23.1611C66.9785 23.2686 65.46 23.3223 64.083 23.3223C62.7158 23.3223 61.5049 23.2979 60.4502 23.249H60.3623C60.0596 23.249 59.7373 21.8086 59.3955 18.9277L59.3223 18.2979C59.2832 17.2236 59.0928 16.501 58.751 16.1299C58.4189 15.7588 57.8379 15.5732 57.0078 15.5732L56.8174 15.5879H56.041V20.041L56.0557 20.5098V23.1904C56.0264 23.2881 55.9531 23.3467 55.8359 23.3662C54.7617 23.4053 53.2432 23.4248 51.2803 23.4248C49.3271 23.4248 48.0381 23.4297 47.4131 23.4395L47.3252 23.4102L47.2959 23.4248C47.2764 23.4248 47.2471 23.4102 47.208 23.3809L47.2373 22.0625L47.2227 21.623L47.2812 15.5439V14.4746L47.2959 13.376L47.3105 9.58203L47.3252 9.08398L47.2812 5.75879C47.2812 5.75879 47.3008 4.20117 47.3398 1.08594C47.3398 1.00781 47.6182 0.96875 48.1748 0.96875L49.1123 0.983398H50.0059L51.8662 0.998047L53.8877 0.96875ZM68.7852 23.0732L68.7119 23.1172V23.0879C68.7119 23.0781 68.7363 23.0732 68.7852 23.0732ZM68.7119 23.1172V23.1318C68.7021 23.1318 68.6973 23.127 68.6973 23.1172H68.7119ZM59.3076 5.74414C58.7217 5.49023 57.9404 5.36328 56.9639 5.36328H56.1143C56.0068 5.51953 55.9531 6.34473 55.9531 7.83887C55.9531 9.32324 55.9775 10.3193 56.0264 10.8271C59.083 10.7588 60.6113 9.7041 60.6113 7.66309C60.6113 6.79395 60.1768 6.1543 59.3076 5.74414ZM92.208 22.1504C92.208 22.1602 92.2129 22.1797 92.2227 22.209L92.1787 22.3262H92.1934V22.3555C92.1934 22.375 92.1885 22.3896 92.1787 22.3994C91.7197 22.751 90.5967 23.0732 88.8096 23.3662C87.0322 23.6592 85.8066 23.8057 85.1328 23.8057C84.4688 23.8057 84.0977 23.8008 84.0195 23.791L83.2725 23.835C82.4912 23.8838 82.042 23.9082 81.9248 23.9082C77.8232 23.9082 74.6982 22.8779 72.5498 20.8174C70.4111 18.7568 69.3418 15.832 69.3418 12.043C69.3418 8.24414 70.4941 5.36328 72.7988 3.40039C75.1133 1.4375 78.2432 0.456055 82.1885 0.456055C82.9111 0.456055 83.7998 0.524414 84.8545 0.661133C85.9189 0.797852 86.8516 0.998047 87.6523 1.26172C88.6289 1.66211 89.4639 2.24316 90.1572 3.00488C90.8604 3.75684 91.3193 4.5918 91.5342 5.50977C91.5732 5.76367 91.6172 6.16406 91.666 6.71094C91.7246 7.24805 91.7734 7.64355 91.8125 7.89746C91.7539 8.04395 91.5439 8.11719 91.1826 8.11719L83.7412 7.98535C83.7021 7.96582 83.6533 7.83398 83.5947 7.58984V7.63379C83.4189 6.84277 83.0723 6.35938 82.5547 6.18359C82.3203 6.0957 82.0127 6.05176 81.6318 6.05176C81.251 6.05176 80.8896 6.11523 80.5479 6.24219C80.2158 6.36914 79.9375 6.54492 79.7129 6.76953C79.4883 6.99414 79.2881 7.25781 79.1123 7.56055C78.9365 7.85352 78.8047 8.1709 78.7168 8.5127C78.6289 8.85449 78.5508 9.20605 78.4824 9.56738C78.4141 9.92871 78.3701 10.2852 78.3506 10.6367C78.3408 10.9883 78.3262 11.3252 78.3066 11.6475C78.2969 11.9697 78.2969 12.2383 78.3066 12.4531C78.3164 12.6582 78.3213 12.7949 78.3213 12.8633V13.874C78.3213 14.5088 78.3506 14.9531 78.4092 15.207C78.4678 15.4512 78.5361 15.7246 78.6143 16.0273C78.6924 16.3203 78.7852 16.5449 78.8926 16.7012C79.2734 17.2383 79.6836 17.6143 80.123 17.8291C80.5723 18.0342 81.2656 18.1367 82.2031 18.1367C83.1504 18.1367 84.0488 17.9951 84.8984 17.7119L84.9717 15.3975L83.917 15.3096L83.7705 15.3828H82.2471L82.0713 15.3975L81.7051 15.0166C81.6855 14.8506 81.6758 14.5869 81.6758 14.2256V10.9443C81.6758 10.7783 81.793 10.6123 82.0273 10.4463H83.0088C83.8584 10.4463 84.8105 10.4561 85.8652 10.4756H86.0117C86.9688 10.4951 87.6963 10.5049 88.1943 10.5049H89.0732L89.4102 10.4902C91.1484 10.4902 92.1396 10.6025 92.3838 10.8271L92.208 21.9453V22.1504ZM94.8887 4.86523L94.8154 1.0127C94.8252 1.0127 94.8594 1.02734 94.918 1.05664C102.34 0.929687 107.931 0.861328 111.69 0.851562C111.729 0.871094 111.759 0.900391 111.778 0.939453V5.07031C111.778 5.4707 111.769 5.79785 111.749 6.05176C111.7 6.20801 111.412 6.28613 110.885 6.28613H110.782C108.419 6.28613 105.958 6.24707 103.399 6.16895C103.399 6.25684 103.385 6.41309 103.355 6.6377C103.336 6.8623 103.321 7.02344 103.312 7.12109L103.238 7.67773C103.189 8.04883 103.155 8.69336 103.136 9.61133L107.677 9.50879C108.458 9.48926 109.024 9.47949 109.376 9.47949H109.61C110.206 9.47949 110.597 9.49902 110.782 9.53809C110.968 9.56738 111.061 9.66504 111.061 9.83105L111.046 9.94824V10.2998L111.119 14.0645L111.104 14.0791V14.0645C108.136 14.2109 105.763 14.2842 103.985 14.2842H103.297V17.8291L111.251 17.5801C111.69 17.5801 111.969 17.6436 112.086 17.7705C112.076 18.0244 112.071 18.3857 112.071 18.8545L112.174 22.8389C112.174 23.083 112.066 23.2246 111.852 23.2637L106.988 23.2197C106.031 23.2197 104.127 23.2539 101.275 23.3223L98.873 23.3809C97.1738 23.4395 95.9141 23.4688 95.0938 23.4688L95.0498 23.4395H95.0645C94.9668 23.3418 94.874 23.249 94.7861 23.1611V22.6484L94.874 6.98926L94.8887 4.86523ZM120.538 0.96875L125.24 0.924805C126.236 0.924805 127.14 0.944336 127.95 0.983398C130.128 1.04199 131.783 1.55469 132.916 2.52148C134.059 3.48828 134.63 4.85059 134.63 6.6084C134.63 7.8291 134.273 8.87402 133.561 9.74316C132.848 10.6025 131.808 11.3594 130.44 12.0137C132.608 12.6973 133.922 14.3574 134.381 16.9941C134.488 17.5703 134.571 18.2295 134.63 18.9717C134.698 19.7139 134.752 20.2119 134.791 20.4658L134.938 21.2129C135.094 22.0918 135.23 22.7266 135.348 23.1172L135.289 23.1611C133.629 23.2686 132.11 23.3223 130.733 23.3223C129.366 23.3223 128.155 23.2979 127.101 23.249H127.013C126.71 23.249 126.388 21.8086 126.046 18.9277L125.973 18.2979C125.934 17.2236 125.743 16.501 125.401 16.1299C125.069 15.7588 124.488 15.5732 123.658 15.5732L123.468 15.5879H122.691V20.041L122.706 20.5098V23.1904C122.677 23.2881 122.604 23.3467 122.486 23.3662C121.412 23.4053 119.894 23.4248 117.931 23.4248C115.978 23.4248 114.688 23.4297 114.063 23.4395L113.976 23.4102L113.946 23.4248C113.927 23.4248 113.897 23.4102 113.858 23.3809L113.888 22.0625L113.873 21.623L113.932 15.5439V14.4746L113.946 13.376L113.961 9.58203L113.976 9.08398L113.932 5.75879C113.932 5.75879 113.951 4.20117 113.99 1.08594C113.99 1.00781 114.269 0.96875 114.825 0.96875L115.763 0.983398H116.656L118.517 0.998047L120.538 0.96875ZM135.436 23.0732L135.362 23.1172V23.0879C135.362 23.0781 135.387 23.0732 135.436 23.0732ZM135.362 23.1172V23.1318C135.353 23.1318 135.348 23.127 135.348 23.1172H135.362ZM125.958 5.74414C125.372 5.49023 124.591 5.36328 123.614 5.36328H122.765C122.657 5.51953 122.604 6.34473 122.604 7.83887C122.604 9.32324 122.628 10.3193 122.677 10.8271C125.733 10.7588 127.262 9.7041 127.262 7.66309C127.262 6.79395 126.827 6.1543 125.958 5.74414ZM168.629 17.9902L168.614 19.7334C168.614 20.4658 168.624 21.623 168.644 23.2051C168.507 23.3906 167.423 23.4834 165.392 23.4834C163.36 23.4834 161.544 23.4541 159.942 23.3955C159.923 23.376 159.83 23.2539 159.664 23.0293V20.6855L159.693 16.1885C159.693 15.749 159.645 15.4902 159.547 15.4121C159.449 15.334 159.151 15.2949 158.653 15.2949H158.448C157.521 15.2949 156.788 15.3389 156.251 15.4268V17.4775L156.222 23.1465C156.075 23.3027 154.85 23.3809 152.545 23.3809H151.842C149.85 23.3809 148.399 23.3516 147.491 23.293C147.306 23.2344 147.213 22.541 147.213 21.2129L147.301 17.9756L147.447 4.85059V4.14746C147.457 4.00098 147.462 3.49316 147.462 2.62402C147.462 1.74512 147.516 1.18848 147.623 0.954102H147.696C148.341 0.973633 148.814 0.983398 149.117 0.983398H150.758L152.53 0.954102H153.087C154.747 0.954102 155.714 1.14453 155.987 1.52539C156.124 1.7207 156.192 2.01855 156.192 2.41895L156.148 4.25V4.93848L156.061 7.83887C156.061 8.05371 156.075 8.33691 156.104 8.68848H157.013L157.379 8.70312H158.551C158.98 8.70312 159.42 8.66895 159.869 8.60059V5.12891L159.884 4.04492V3.03418L159.869 2.7998V2.05273C159.869 1.47656 159.894 1.125 159.942 0.998047C160.001 0.871094 160.143 0.807617 160.367 0.807617L160.66 0.822266H161.612L164.776 0.734375C167.296 0.734375 168.556 0.93457 168.556 1.33496V2.375L168.57 2.72656L168.556 3.48828V5.75879L168.629 15.1045C168.629 15.2607 168.619 15.4658 168.6 15.7197V16.4229C168.6 16.7354 168.609 17.1455 168.629 17.6533V17.9902ZM171.617 4.86523L171.544 1.0127C171.554 1.0127 171.588 1.02734 171.646 1.05664C179.068 0.929687 184.659 0.861328 188.419 0.851562C188.458 0.871094 188.487 0.900391 188.507 0.939453V5.07031C188.507 5.4707 188.497 5.79785 188.478 6.05176C188.429 6.20801 188.141 6.28613 187.613 6.28613H187.511C185.147 6.28613 182.687 6.24707 180.128 6.16895C180.128 6.25684 180.113 6.41309 180.084 6.6377C180.064 6.8623 180.05 7.02344 180.04 7.12109L179.967 7.67773C179.918 8.04883 179.884 8.69336 179.864 9.61133L184.405 9.50879C185.187 9.48926 185.753 9.47949 186.104 9.47949H186.339C186.935 9.47949 187.325 9.49902 187.511 9.53809C187.696 9.56738 187.789 9.66504 187.789 9.83105L187.774 9.94824V10.2998L187.848 14.0645L187.833 14.0791V14.0645C184.864 14.2109 182.491 14.2842 180.714 14.2842H180.025V17.8291L187.979 17.5801C188.419 17.5801 188.697 17.6436 188.814 17.7705C188.805 18.0244 188.8 18.3857 188.8 18.8545L188.902 22.8389C188.902 23.083 188.795 23.2246 188.58 23.2637L183.717 23.2197C182.76 23.2197 180.855 23.2539 178.004 23.3223L175.602 23.3809C173.902 23.4395 172.643 23.4688 171.822 23.4688L171.778 23.4395H171.793C171.695 23.3418 171.603 23.249 171.515 23.1611V22.6484L171.603 6.98926L171.617 4.86523ZM213.937 23.1611C213.927 23.2881 213.658 23.3516 213.131 23.3516H211.783L210.875 23.3662H209.981L208.561 23.3809C207.145 23.3809 205.968 23.3467 205.03 23.2783C205.001 23.2686 204.967 23.21 204.928 23.1025L204.854 22.7949C204.767 21.7891 204.537 20.8174 204.166 19.8799L197.896 19.9385C197.857 20.1045 197.73 20.5977 197.516 21.418C197.301 22.2383 197.14 22.8584 197.032 23.2783C196.935 23.376 196.471 23.4248 195.641 23.4248L195.274 23.4102H194.425L190.616 23.498H190.177L189.767 23.5127H188.741C188.673 23.4443 188.6 23.3564 188.521 23.249C189.498 19.8701 190.821 15.6807 192.491 10.6807L192.828 9.64062H192.813L193.209 8.4248C193.336 8.03418 193.697 6.9502 194.293 5.17285C194.898 3.39551 195.274 2.24805 195.421 1.73047C195.577 1.21289 195.67 0.944336 195.699 0.924805H198.131L203.331 0.851562L204.737 0.924805L205.895 0.851562C206.48 0.851562 206.773 0.96875 206.773 1.20312C207.75 3.92773 209.054 7.84863 210.685 12.9658C212.315 18.083 213.233 20.959 213.438 21.5938L213.644 22.3262C213.712 22.5898 213.81 22.8682 213.937 23.1611ZM199.435 15.1631L200.035 15.1777L203.536 15.1631C203.39 14.001 203.277 13.1465 203.199 12.5996L202.643 10.0947C202.057 7.50684 201.754 6.18848 201.734 6.13965C201.715 6.09082 201.695 6.04688 201.676 6.00781C201.666 5.95898 201.656 5.92969 201.646 5.91992C201.637 5.90039 201.622 5.87109 201.603 5.83203C201.593 5.79297 201.578 5.76855 201.559 5.75879C201.549 5.73926 201.534 5.71484 201.515 5.68555C201.446 5.56836 201.305 5.46582 201.09 5.37793C200.826 5.43652 200.04 8.37598 198.731 14.1963L198.57 15.1631H199.435ZM226.52 23.3662L224.674 23.3223H223.575C223.263 23.3613 222.584 23.3809 221.539 23.3809C220.504 23.3809 218.961 23.4053 216.91 23.4541C216.529 23.1123 216.173 22.126 215.841 20.4951C215.509 18.8545 215.084 17.1748 214.566 15.4561C214.059 13.7275 213.741 12.6387 213.614 12.1895L213.175 10.6367C213.048 10.1875 212.828 9.4209 212.516 8.33691C211.529 4.9873 210.88 2.55078 210.567 1.02734C210.567 0.949219 213.429 0.910156 219.151 0.910156C219.327 0.910156 219.464 0.973633 219.562 1.10059C220.333 5.68066 221.202 10.6709 222.169 16.0713L222.286 16.8477H222.872L223.004 16.0859C223.307 14.1816 223.883 11.1104 224.732 6.87207L225.084 5.2168C225.201 4.66016 225.47 3.27344 225.89 1.05664C226.339 0.939453 228.824 0.880859 233.346 0.880859H234.005C234.122 0.949219 234.195 1.0127 234.225 1.07129L231.28 11.7207C231.065 12.4922 230.938 12.9854 230.899 13.2002L230.211 15.8955C229.107 20.5928 228.316 23.0928 227.838 23.3955C227.574 23.3955 227.159 23.3857 226.593 23.3662H226.52ZM235.338 4.86523L235.265 1.0127C235.274 1.0127 235.309 1.02734 235.367 1.05664C242.789 0.929687 248.38 0.861328 252.14 0.851562C252.179 0.871094 252.208 0.900391 252.228 0.939453V5.07031C252.228 5.4707 252.218 5.79785 252.198 6.05176C252.149 6.20801 251.861 6.28613 251.334 6.28613H251.231C248.868 6.28613 246.407 6.24707 243.849 6.16895C243.849 6.25684 243.834 6.41309 243.805 6.6377C243.785 6.8623 243.771 7.02344 243.761 7.12109L243.688 7.67773C243.639 8.04883 243.604 8.69336 243.585 9.61133L248.126 9.50879C248.907 9.48926 249.474 9.47949 249.825 9.47949H250.06C250.655 9.47949 251.046 9.49902 251.231 9.53809C251.417 9.56738 251.51 9.66504 251.51 9.83105L251.495 9.94824V10.2998L251.568 14.0645L251.554 14.0791V14.0645C248.585 14.2109 246.212 14.2842 244.435 14.2842H243.746V17.8291L251.7 17.5801C252.14 17.5801 252.418 17.6436 252.535 17.7705C252.525 18.0244 252.521 18.3857 252.521 18.8545L252.623 22.8389C252.623 23.083 252.516 23.2246 252.301 23.2637L247.438 23.2197C246.48 23.2197 244.576 23.2539 241.725 23.3223L239.322 23.3809C237.623 23.4395 236.363 23.4688 235.543 23.4688L235.499 23.4395H235.514C235.416 23.3418 235.323 23.249 235.235 23.1611V22.6484L235.323 6.98926L235.338 4.86523ZM276.632 12.7461L276.617 13.7275V19.1475L276.646 21.7256V22.458L276.661 23.1465C276.603 23.2246 276.363 23.2637 275.943 23.2637H275.562L270.963 23.3223C269.01 23.3223 267.555 23.3174 266.598 23.3076C266.451 23.1514 265.919 21.7305 265.001 19.0449L262.203 11.6182L261.676 11.6914L261.661 13.1855V17.1553L261.72 21.125V22.7656C261.72 23.2051 261.622 23.4346 261.427 23.4541C260.46 23.4248 259.537 23.4102 258.658 23.4102H258.204L255.992 23.4688H255.699L254.645 23.498L254.601 23.4688C254.278 23.166 254.117 22.9463 254.117 22.8096V22.5459L254.132 22.2529L254.205 16.54C254.205 10.2705 254.264 5.5293 254.381 2.31641L254.41 1.10059C254.41 1.0127 257.774 0.93457 264.503 0.866211C264.562 0.905273 264.649 1.12012 264.767 1.51074V1.4668L264.854 1.75977C265.577 3.83008 266.456 6.20801 267.491 8.89355C268.526 11.5693 269.054 12.9365 269.073 12.9951L269.571 12.9658L269.63 1.02734C269.63 0.949219 270.343 0.910156 271.769 0.910156L275.445 0.983398H276.529C276.598 4.21582 276.632 8.13672 276.632 12.7461Z" fill="#E9E3DC"/>
</svg>
